<svg xmlns="http://www.w3.org/2000/svg" xmlns:xlink="http://www.w3.org/1999/xlink" width="160.658" height="70.972" viewBox="0 0 160.658 70.972">
  <defs>
    <linearGradient id="linear-gradient" x1="1" y1="0.417" x2="0" y2="1" gradientUnits="objectBoundingBox">
      <stop offset="0" stop-color="#141c4f"/>
      <stop offset="1" stop-color="#002b7f"/>
    </linearGradient>
    <clipPath id="clip-path">
      <path id="Path_254" data-name="Path 254" d="M527.173,205.359a1.275,1.275,0,0,0,.624,0,.839.839,0,0,1,.869.065.8.8,0,0,0,.529.151c.761-.082,2.517-.053,3-.649a3.413,3.413,0,0,1,.4-.434c.775-.355-2.608-2.19-2.835-2.193a3.805,3.805,0,0,1-.774-.081Zm22.391,1.94a3.5,3.5,0,0,1,1.4-.434c.582-.088.519-.23,1-.644.311-.269,1.342-.1,1.592-.433a1.711,1.711,0,0,1,.812,0c.058.1.313.141.4.211.644.522,1.06.278,1.8.432a7.357,7.357,0,0,0,1.375.222c.287-.183.477-.134.619.211a17.965,17.965,0,0,0,1.994,1.075.993.993,0,0,0,.461-.016c.216-.037.435-.074.538.016.037.031,1.375.57,1.375.637s-.123.188-.187.227a3.718,3.718,0,0,1-2.8,0,1.809,1.809,0,0,0-.585.1,1.907,1.907,0,0,1-.6.1c-.064-.028-.369.165-.4.211-.167.243-.811.378-1.1.428a2.1,2.1,0,0,1-.542-.035,1.552,1.552,0,0,0-.679-.01c-2.119.835-3.463-.016-4.479-.157a1.356,1.356,0,0,0-.315.111c-.408.158-1.129.315-1.891-.777-.259-.366-1.055-.361-1.667-.355a2.239,2.239,0,0,1-.7-.048c-.3-.137-.325-.176-.193-.436.083-.163.408-.468.589-.432a10.705,10.705,0,0,0,1.187,0,.993.993,0,0,1,.616,0,.06.06,0,0,0,.019,0,.924.924,0,0,0,.362-.211m7.8-17.824a1.481,1.481,0,0,0-.784.441c-.392.668-1.187.559-1.616.864-.1.072-1.375,2.059-1.6,2.152-.044.018-.471.837-2.283.841-.228,0-1.033.445-1.21.44-1.34-.053-3.1-1.164-3.481-1.082a6,6,0,0,1-2.21.2c-.071-.011-3.1.162-3.192.225a1.207,1.207,0,0,1-.805,0c-.631-.268-1.1-1.495-1.785-1.509a5.381,5.381,0,0,0-.571.033,2.169,2.169,0,0,1-1.113-.077c-.459-.218-.394-1.067-.825-1.718l-2.706,4.681c.806.341,1.489,1.166,2.409,1.175a2.171,2.171,0,0,0,1.09-.412c.5-.306.946-.614,1.314-.246a6.078,6.078,0,0,0,.594.426c.623.213,2.163.22,5.425-.51.588-.132.378.271-.113.673-.6.494-1.621.988-2.108.5a6.035,6.035,0,0,0-2.207.341c-.8.2-1.5.4-1.534.384a1.523,1.523,0,0,0-.8,0,9.466,9.466,0,0,0-2.414.958c-.106.072-1.145,0-1.254.079a3.882,3.882,0,0,1-1.8.584,2.584,2.584,0,0,0-.832-.1l-1.342,2.322a7.636,7.636,0,0,1,1.183-.5c.5-.026.83.51,1.276.51,1.084,0,1.926-1.635,2.93-1.585.41.021,1.125,1.036,1.189,1.075a5.247,5.247,0,0,0,3.366.911c.4-.023.665-.049.835.158s-.052.851-.213,1.073c-.3.429-.317,1.567,4.4,1.073a9.235,9.235,0,0,1,2.708.039c2.246.322.908,1.221-.051,1.129a10.276,10.276,0,0,0-2.448.339c-.306.248-.969.607-1,.64-.489.491-3.377,1.03-3.607,1.3-.069.083.04.329,0,.431-.183.469-1.1.425-1.947.383a4.962,4.962,0,0,0-1.241.025c-1.226.324-1.224-.38-2.209-.631a1.182,1.182,0,0,0-.587,0,3.6,3.6,0,0,1-1.407.223,11.6,11.6,0,0,0-1.593-.223c-1.078-.473-3.618-1.022-4.265-1.286-.037-.014-.114-.044-.206-.081l-5.1,8.825a2.2,2.2,0,0,0,1.931,3.24h20.652a17.826,17.826,0,0,0-.023-3.009c-.051-.273-.171-.876-.4-1.031-.023-.016-.065-.007-.108,0a.193.193,0,0,1-.095,0c-.645-.287-.983-1.025-1.472-1.554s-.839-1.147-1.321-1.666c-.3-.323-1.1-.8-1.3-1.19-.084-.169-.206-.6-.089-.746.1-.129.5-.134.651-.077.466.169.45.517.742.946a5.506,5.506,0,0,0,2.051,1.621,4.336,4.336,0,0,0,.742.4,1.382,1.382,0,0,0,.663.088c.617-.237-.629-3.428-.156-3.846.111-.1.406.19.514.289s.169.4.3.438a20.011,20.011,0,0,0,3.176.413c.323,0,1.168.2,1.184.528.005.137-.387.17-.482.271a2.578,2.578,0,0,0-.209,2.357,31.222,31.222,0,0,1,.253,3.812c0,.143-.222.369-.253.508a2.782,2.782,0,0,0,.075,1.451h22.031a2.2,2.2,0,0,0,2.194-2.2,2.275,2.275,0,0,0-.289-1.086l-6.563-11.37a1.814,1.814,0,0,1-1.268.082,4.276,4.276,0,0,0-1.81,0c-.892.412-.507.834-1.984.857-.075,0-.13.195-.2.226a1.641,1.641,0,0,1-1,0,26.054,26.054,0,0,0-5.392-1.083,5.6,5.6,0,0,1-2,0,.4.4,0,0,0-.083.007c-.042.007-.09.014-.109-.007a.222.222,0,0,1,0-.214c.521-.521,1.629-.294,2.387-.413A6.244,6.244,0,0,1,556.11,203a4.066,4.066,0,0,0,2.125-.22c.16-.068,1.263-.121,1.527-.2a5.279,5.279,0,0,0,1.194-1.077c.241-.3.109-1.236.4-1.491.038-.033,1.512-1.085,1.583-1.088.257-.011.249-.131.3-.176l-1.722-2.983c-.106.048-.22.1-.352.15-1.708.68-1.724,1.477-1.708,1.553.448,2.1-.651,3.533-2.629,3.283-2-.255-1.866-.862-3.273.53a3.135,3.135,0,0,1-2.374.665,6.762,6.762,0,0,1-2.615,0,3.678,3.678,0,0,0-1.549.023,3.907,3.907,0,0,1-1.85-.023c-.677-.315-3.539-.341-4.2-1.354-.214-.327-1.665-.163-2.166-.38-.447-.194,1.651-.964,1.783-1.071a2.115,2.115,0,0,1,1.282-.146,2.641,2.641,0,0,0,1.113-.07c.3-.145,1.878-.113,2.188-.424.114-.114,2.081-1.62,2.567-1.242.233.178.885.807,1.041.809.962,0,1.915.587,2.782.216,1.168-.5.5-1.706,2-1.706a7.174,7.174,0,0,1,2.021-.227c.863.209,1.379.364,1.783-.436a2.367,2.367,0,0,1,.213-.426,12.838,12.838,0,0,1,3.52-.459l-.8-1.382a3.061,3.061,0,0,1-1.928-.332,5.91,5.91,0,0,0-.795-.384c-.442.259-1.752.851-2,.4a5.493,5.493,0,0,1,.183-1.068c.007-.074.573-1.024.6-1.071a.746.746,0,0,1,.591-.216c.4.123,1.01-.394,1.5-.521l-.483-.837a1.011,1.011,0,0,0-.485-.156.626.626,0,0,0-.127.012M546.3,183.533a4.141,4.141,0,0,1,.893-.156c.466-.041,1.741-.514,1.757.833,0,.207.383.417.54.42a3.038,3.038,0,0,0,.4-.018c.3-.032.362-.062.886.262a2.693,2.693,0,0,0,1.352.384,7.055,7.055,0,0,0,.781.019c2.095-.582-.2,1.231-.45,1.317a3.212,3.212,0,0,1-.644-.007,5.325,5.325,0,0,0-1.039.007,3.38,3.38,0,0,1-.9.2c-.666-.134-.482-.134-.925,0-.116.037-.373.241-.447.223-.915-.222-1.1.172-1.97.216-.315.014-.9-.4-1.217-.44a2.129,2.129,0,0,1-1.827-.841c-.065-.088-.331.016-.675.121a2.155,2.155,0,0,1-1.3.081,2.017,2.017,0,0,1-.918-.658,4.673,4.673,0,0,1,1.677-.858,3.188,3.188,0,0,0,.6-.209c.549-.825.672-.315,1.523-.86a1.56,1.56,0,0,1,.788-.005,4.779,4.779,0,0,0,.6.048,1.428,1.428,0,0,0,.517-.081m-1.1-9.353-8.364,14.465a6.838,6.838,0,0,0,.962-.237,4.464,4.464,0,0,1,2.2.519,9.993,9.993,0,0,0,1.4.549,16.625,16.625,0,0,0,2.19-.631c.218-.1,1.011.408,1.2.42a7.152,7.152,0,0,0,2.265-.105,5.366,5.366,0,0,1,1.766-.12c.053,0,3.071.14,3.308.065.167-.053,1.465-.807,1.628-.876.413-.179.837-.524,1.417-.255a5.478,5.478,0,0,0,1.4.434,1,1,0,0,1,.584-.2s-8.085-13.99-8.09-14a2.176,2.176,0,0,0-3.876-.03" transform="translate(-521.359 -173.009)" fill="#fff"/>
    </clipPath>
  </defs>
  <g id="Group_232" data-name="Group 232" transform="translate(0.635)">
    <rect id="Rectangle_31" data-name="Rectangle 31" width="159.073" height="2.362" rx="1.181" transform="translate(0 53.348)" fill="#e50019"/>
    <path id="Union_1" data-name="Union 1" d="M0,16.889c0-.025,0-.793,0-.793a.753.753,0,0,1,.754-.754H3.591a.759.759,0,0,1,.762.754v.522c0,1.031,1.133,1.59,2.135,1.59,1.036,0,2.159-.559,2.159-1.59v-2A1.391,1.391,0,0,0,7.479,13.3C3.99,12.752,3.9,10.25,3.879,7.99V7.534H1.5a.774.774,0,0,1-.774-.773V4.773A.775.775,0,0,1,1.5,4H3.879V1.166A.775.775,0,0,1,4.655.393H7.566a.774.774,0,0,1,.774.774V4h2.481a.777.777,0,0,1,.775.775V6.761a.775.775,0,0,1-.775.773H8.34V8.606A1.354,1.354,0,0,0,9.477,9.995c2.132.644,3.521,1.393,3.521,4.42v2.463a.051.051,0,0,0-.014,0c-.146,3.669-3.315,5.5-6.5,5.528C3.341,22.377.155,20.55,0,16.889Zm93.122,5.516a.756.756,0,0,1-.756-.756l0-15.861c0-1.03-1.122-1.59-2.126-1.59-1.037,0-2.161.559-2.161,1.59V21.649a.758.758,0,0,1-.758.756H84.476a.758.758,0,0,1-.758-.756V5.788C83.718,1.942,86.981.03,90.239,0c3.224.03,6.486,1.942,6.486,5.788V21.649a.758.758,0,0,1-.758.756Zm-34.011,0a.756.756,0,0,1-.756-.756l0-15.861c0-1.03-1.122-1.59-2.126-1.59-1.038,0-2.162.559-2.162,1.59V21.649a.758.758,0,0,1-.758.756H50.465a.756.756,0,0,1-.756-.756V5.788C49.709,1.942,52.97.03,56.229,0c3.223.03,6.486,1.942,6.486,5.788V21.649a.758.758,0,0,1-.758.756Zm-33.99,0a.756.756,0,0,1-.756-.756l0-15.861c0-1.03-1.122-1.59-2.126-1.59-1.038,0-2.161.559-2.161,1.59V21.649a.758.758,0,0,1-.758.756H16.475a.758.758,0,0,1-.758-.756V5.788C15.717,1.942,18.981.03,22.238,0c3.225.03,6.486,1.942,6.486,5.788V21.649a.757.757,0,0,1-.756.756Zm42.885-5.787L68,16.052a.716.716,0,0,1,.716-.716H71.65a.715.715,0,0,1,.716.716v.614c.037,1,1.141,1.542,2.128,1.542,1.036,0,2.159-.559,2.159-1.59l0-4.238c0-2.453-6.5-8.25-6.5-10.921V.734A.737.737,0,0,1,70.888,0h3.035a.723.723,0,0,1,.7.556A11.1,11.1,0,0,0,76.3,3.525c1.624,2.333,4.74,5.633,4.74,7.947v5.146c0,3.844-3.291,5.758-6.547,5.786C71.268,22.376,68.007,20.463,68.007,16.618Zm-34.013,0V16.1a.757.757,0,0,1,.756-.756H37.6a.756.756,0,0,1,.756.756v.566c.035,1,1.141,1.544,2.128,1.544,1.034,0,2.156-.559,2.158-1.588V15.151a1.977,1.977,0,0,0-2.114-2H39.289V9.2l1.2.009a1.3,1.3,0,0,0,1.365-1.477c0-2.014-5.719-4.33-5.719-6.275v-.7A.757.757,0,0,1,36.894,0H40c.355,0,.463.165.721.582.006,0,.18.271.241.338,2.883,3.114,5.234,3.872,5.234,6.82,0,1.848-.874,2.807-1.952,3.144A4.706,4.706,0,0,1,47,15.438l0,.684,0,0v.493c0,.03,0,.058-.006.088v.172l-.009-.007c-.142,3.672-3.32,5.5-6.5,5.533C37.255,22.376,33.994,20.463,33.994,16.618Z" transform="translate(0.175 22.869)" fill="#292562" stroke="rgba(0,0,0,0)" stroke-miterlimit="10" stroke-width="1"/>
    <path id="Path_253" data-name="Path 253" d="M527.173,205.359a1.275,1.275,0,0,0,.624,0,.839.839,0,0,1,.869.065.8.8,0,0,0,.529.151c.761-.082,2.517-.053,3-.649a3.413,3.413,0,0,1,.4-.434c.775-.355-2.608-2.19-2.835-2.193a3.805,3.805,0,0,1-.774-.081Zm22.391,1.94a3.5,3.5,0,0,1,1.4-.434c.582-.088.519-.23,1-.644.311-.269,1.342-.1,1.592-.433a1.711,1.711,0,0,1,.812,0c.058.1.313.141.4.211.644.522,1.06.278,1.8.432a7.357,7.357,0,0,0,1.375.222c.287-.183.477-.134.619.211a17.965,17.965,0,0,0,1.994,1.075.993.993,0,0,0,.461-.016c.216-.037.435-.074.538.016.037.031,1.375.57,1.375.637s-.123.188-.187.227a3.718,3.718,0,0,1-2.8,0,1.809,1.809,0,0,0-.585.1,1.907,1.907,0,0,1-.6.1c-.064-.028-.369.165-.4.211-.167.243-.811.378-1.1.428a2.1,2.1,0,0,1-.542-.035,1.552,1.552,0,0,0-.679-.01c-2.119.835-3.463-.016-4.479-.157a1.356,1.356,0,0,0-.315.111c-.408.158-1.129.315-1.891-.777-.259-.366-1.055-.361-1.667-.355a2.239,2.239,0,0,1-.7-.048c-.3-.137-.325-.176-.193-.436.083-.163.408-.468.589-.432a10.705,10.705,0,0,0,1.187,0,.993.993,0,0,1,.616,0,.06.06,0,0,0,.019,0,.924.924,0,0,0,.362-.211m7.8-17.824a1.481,1.481,0,0,0-.784.441c-.392.668-1.187.559-1.616.864-.1.072-1.375,2.059-1.6,2.152-.044.018-.471.837-2.283.841-.228,0-1.033.445-1.21.44-1.34-.053-3.1-1.164-3.481-1.082a6,6,0,0,1-2.21.2c-.071-.011-3.1.162-3.192.225a1.207,1.207,0,0,1-.805,0c-.631-.268-1.1-1.495-1.785-1.509a5.381,5.381,0,0,0-.571.033,2.169,2.169,0,0,1-1.113-.077c-.459-.218-.394-1.067-.825-1.718l-2.706,4.681c.806.341,1.489,1.166,2.409,1.175a2.171,2.171,0,0,0,1.09-.412c.5-.306.946-.614,1.314-.246a6.078,6.078,0,0,0,.594.426c.623.213,2.163.22,5.425-.51.588-.132.378.271-.113.673-.6.494-1.621.988-2.108.5a6.035,6.035,0,0,0-2.207.341c-.8.2-1.5.4-1.534.384a1.523,1.523,0,0,0-.8,0,9.466,9.466,0,0,0-2.414.958c-.106.072-1.145,0-1.254.079a3.882,3.882,0,0,1-1.8.584,2.584,2.584,0,0,0-.832-.1l-1.342,2.322a7.636,7.636,0,0,1,1.183-.5c.5-.026.83.51,1.276.51,1.084,0,1.926-1.635,2.93-1.585.41.021,1.125,1.036,1.189,1.075a5.247,5.247,0,0,0,3.366.911c.4-.023.665-.049.835.158s-.052.851-.213,1.073c-.3.429-.317,1.567,4.4,1.073a9.235,9.235,0,0,1,2.708.039c2.246.322.908,1.221-.051,1.129a10.276,10.276,0,0,0-2.448.339c-.306.248-.969.607-1,.64-.489.491-3.377,1.03-3.607,1.3-.069.083.04.329,0,.431-.183.469-1.1.425-1.947.383a4.962,4.962,0,0,0-1.241.025c-1.226.324-1.224-.38-2.209-.631a1.182,1.182,0,0,0-.587,0,3.6,3.6,0,0,1-1.407.223,11.6,11.6,0,0,0-1.593-.223c-1.078-.473-3.618-1.022-4.265-1.286-.037-.014-.114-.044-.206-.081l-5.1,8.825a2.2,2.2,0,0,0,1.931,3.24h20.652a17.826,17.826,0,0,0-.023-3.009c-.051-.273-.171-.876-.4-1.031-.023-.016-.065-.007-.108,0a.193.193,0,0,1-.095,0c-.645-.287-.983-1.025-1.472-1.554s-.839-1.147-1.321-1.666c-.3-.323-1.1-.8-1.3-1.19-.084-.169-.206-.6-.089-.746.1-.129.5-.134.651-.077.466.169.45.517.742.946a5.506,5.506,0,0,0,2.051,1.621,4.336,4.336,0,0,0,.742.4,1.382,1.382,0,0,0,.663.088c.617-.237-.629-3.428-.156-3.846.111-.1.406.19.514.289s.169.4.3.438a20.011,20.011,0,0,0,3.176.413c.323,0,1.168.2,1.184.528.005.137-.387.17-.482.271a2.578,2.578,0,0,0-.209,2.357,31.222,31.222,0,0,1,.253,3.812c0,.143-.222.369-.253.508a2.782,2.782,0,0,0,.075,1.451h22.031a2.2,2.2,0,0,0,2.194-2.2,2.275,2.275,0,0,0-.289-1.086l-6.563-11.37a1.814,1.814,0,0,1-1.268.082,4.276,4.276,0,0,0-1.81,0c-.892.412-.507.834-1.984.857-.075,0-.13.195-.2.226a1.641,1.641,0,0,1-1,0,26.054,26.054,0,0,0-5.392-1.083,5.6,5.6,0,0,1-2,0,.4.4,0,0,0-.083.007c-.042.007-.09.014-.109-.007a.222.222,0,0,1,0-.214c.521-.521,1.629-.294,2.387-.413A6.244,6.244,0,0,1,556.11,203a4.066,4.066,0,0,0,2.125-.22c.16-.068,1.263-.121,1.527-.2a5.279,5.279,0,0,0,1.194-1.077c.241-.3.109-1.236.4-1.491.038-.033,1.512-1.085,1.583-1.088.257-.011.249-.131.3-.176l-1.722-2.983c-.106.048-.22.1-.352.15-1.708.68-1.724,1.477-1.708,1.553.448,2.1-.651,3.533-2.629,3.283-2-.255-1.866-.862-3.273.53a3.135,3.135,0,0,1-2.374.665,6.762,6.762,0,0,1-2.615,0,3.678,3.678,0,0,0-1.549.023,3.907,3.907,0,0,1-1.85-.023c-.677-.315-3.539-.341-4.2-1.354-.214-.327-1.665-.163-2.166-.38-.447-.194,1.651-.964,1.783-1.071a2.115,2.115,0,0,1,1.282-.146,2.641,2.641,0,0,0,1.113-.07c.3-.145,1.878-.113,2.188-.424.114-.114,2.081-1.62,2.567-1.242.233.178.885.807,1.041.809.962,0,1.915.587,2.782.216,1.168-.5.5-1.706,2-1.706a7.174,7.174,0,0,1,2.021-.227c.863.209,1.379.364,1.783-.436a2.367,2.367,0,0,1,.213-.426,12.838,12.838,0,0,1,3.52-.459l-.8-1.382a3.061,3.061,0,0,1-1.928-.332,5.91,5.91,0,0,0-.795-.384c-.442.259-1.752.851-2,.4a5.493,5.493,0,0,1,.183-1.068c.007-.074.573-1.024.6-1.071a.746.746,0,0,1,.591-.216c.4.123,1.01-.394,1.5-.521l-.483-.837a1.011,1.011,0,0,0-.485-.156.626.626,0,0,0-.127.012M546.3,183.533a4.141,4.141,0,0,1,.893-.156c.466-.041,1.741-.514,1.757.833,0,.207.383.417.54.42a3.038,3.038,0,0,0,.4-.018c.3-.032.362-.062.886.262a2.693,2.693,0,0,0,1.352.384,7.055,7.055,0,0,0,.781.019c2.095-.582-.2,1.231-.45,1.317a3.212,3.212,0,0,1-.644-.007,5.325,5.325,0,0,0-1.039.007,3.38,3.38,0,0,1-.9.2c-.666-.134-.482-.134-.925,0-.116.037-.373.241-.447.223-.915-.222-1.1.172-1.97.216-.315.014-.9-.4-1.217-.44a2.129,2.129,0,0,1-1.827-.841c-.065-.088-.331.016-.675.121a2.155,2.155,0,0,1-1.3.081,2.017,2.017,0,0,1-.918-.658,4.673,4.673,0,0,1,1.677-.858,3.188,3.188,0,0,0,.6-.209c.549-.825.672-.315,1.523-.86a1.56,1.56,0,0,1,.788-.005,4.779,4.779,0,0,0,.6.048,1.428,1.428,0,0,0,.517-.081m-1.1-9.353-8.364,14.465a6.838,6.838,0,0,0,.962-.237,4.464,4.464,0,0,1,2.2.519,9.993,9.993,0,0,0,1.4.549,16.625,16.625,0,0,0,2.19-.631c.218-.1,1.011.408,1.2.42a7.152,7.152,0,0,0,2.265-.105,5.366,5.366,0,0,1,1.766-.12c.053,0,3.071.14,3.308.065.167-.053,1.465-.807,1.628-.876.413-.179.837-.524,1.417-.255a5.478,5.478,0,0,0,1.4.434,1,1,0,0,1,.584-.2s-8.085-13.99-8.09-14a2.176,2.176,0,0,0-3.876-.03" transform="translate(-413.339 -173.009)" fill="url(#linear-gradient)"/>
    <path id="Union_2" data-name="Union 2" d="M63.016,9.282a3.06,3.06,0,0,1-1.8-.6A2.032,2.032,0,0,1,60.406,7V5.289h1.134V7a.952.952,0,0,0,.4.855,1.744,1.744,0,0,0,1.092.336,4.639,4.639,0,0,0,1.592-.27V3.263c0-.386-.276-.858-1.567-1.159-.57-.135-1.52-.646-1.52-1.495V.177h1.094v.23c0,.454,1.069.711,1.142.74,1.238.382,1.94,1.045,1.94,2.084v5.48l-.227.07a8.289,8.289,0,0,1-2.467.5Zm-13.921,0a3.024,3.024,0,0,1-1.794-.6A2.022,2.022,0,0,1,46.5,7V5.289h1.136V7a.945.945,0,0,0,.392.855,1.761,1.761,0,0,0,1.1.336,4.659,4.659,0,0,0,1.591-.27V3.263c0-.386-.278-.858-1.567-1.159-.568-.135-1.512-.646-1.512-1.495V.177h1.082v.23c0,.454,1.078.711,1.147.74,1.243.382,1.94,1.045,1.94,2.084v5.48l-.223.07a8.31,8.31,0,0,1-2.476.5Zm-6.761,0a8.83,8.83,0,0,1-2.6-.4l-.2-.067V.177h1.1V8.011a6.061,6.061,0,0,0,1.7.211A1.836,1.836,0,0,0,43.5,7.835a1.087,1.087,0,0,0,.45-.957V6.4a3.374,3.374,0,0,0-.4-1.9l-.209-.222.892-.817.19.259A5.1,5.1,0,0,1,45.058,6.4v.425a2.163,2.163,0,0,1-.834,1.794,3.232,3.232,0,0,1-1.882.659Zm-11.5,0h-.005a8.865,8.865,0,0,1-2.6-.4l-.209-.067V.177h1.113V8.011a6.005,6.005,0,0,0,1.7.211,1.843,1.843,0,0,0,1.166-.387,1.094,1.094,0,0,0,.45-.957V6.4a3.375,3.375,0,0,0-.4-1.9l-.213-.222.885-.817.193.259A4.984,4.984,0,0,1,33.548,6.4v.425a2.149,2.149,0,0,1-.841,1.794,3.226,3.226,0,0,1-1.873.659ZM54.219,8.7a2.076,2.076,0,0,1-.844-1.79V.591l.211-.061A8.474,8.474,0,0,1,56.221,0a3.129,3.129,0,0,1,1.908.628A2.118,2.118,0,0,1,58.981,2.4V4.584a2.188,2.188,0,0,1-.869,1.809,3.107,3.107,0,0,1-1.9.614h-.049a3.221,3.221,0,0,1-1.692-.445v.359a1.033,1.033,0,0,0,.542.985,2.188,2.188,0,0,0,1.4.289,2.535,2.535,0,0,0,1.324-.51l.223-.174.735.711-.239.229a3.28,3.28,0,0,1-2.321.832A3.2,3.2,0,0,1,54.219,8.7Zm.251-7.305V5.522a4.964,4.964,0,0,0,1.706.383,2.149,2.149,0,0,0,1.21-.383,1.01,1.01,0,0,0,.431-.928V2.39a1.022,1.022,0,0,0-.431-.923,1.863,1.863,0,0,0-1.18-.366A4.913,4.913,0,0,0,54.47,1.391ZM13.832,8.765v-6.3A2.354,2.354,0,0,1,16.49.088h2.327V1.165H16.49c-1,0-1.555.479-1.555,1.3V3.485a2.758,2.758,0,0,1,1.653-.438,2.529,2.529,0,0,1,2.766,2.378V6.9a2.5,2.5,0,0,1-2.726,2.378A8.94,8.94,0,0,1,13.832,8.765Zm1.1-4.3V8.047a5.763,5.763,0,0,0,1.694.2A1.454,1.454,0,0,0,18.239,6.9V5.41c.014-.844-.813-1.248-1.639-1.266A4.735,4.735,0,0,0,14.935,4.461ZM79.409,9.267A2.839,2.839,0,0,1,76.53,6.476v-4a2.241,2.241,0,0,1,.8-1.82A2.785,2.785,0,0,1,79.24.064a3.89,3.89,0,0,1,1.175.218,2.292,2.292,0,0,1,.768.522A2.387,2.387,0,0,1,81.94.283,3.948,3.948,0,0,1,83.118.064a2.77,2.77,0,0,1,1.91.593,2.23,2.23,0,0,1,.8,1.82V4.754H84.736V2.505a1.149,1.149,0,0,0-.725-1.227,1.97,1.97,0,0,0-1.488-.093,1.082,1.082,0,0,0-.828.837c0,.035,0,.083,0,.141V4.171H80.677L80.67,2.163A1.161,1.161,0,0,0,80.656,2a1.061,1.061,0,0,0-.818-.818,1.973,1.973,0,0,0-1.488.093,1.133,1.133,0,0,0-.726,1.2V6.246a1.823,1.823,0,0,0,1.925,2l1.634-.02c1.91,0,2.782-.021,3.319-.6l.19-.213.76.683-.193.22c-.886.966-2.059.966-4.012.966C81.247,9.281,79.911,9.267,79.409,9.267Zm47.013.014a3.05,3.05,0,0,1-1.8-.589,2.052,2.052,0,0,1-.809-1.7V6.042h1.136V7a.945.945,0,0,0,.4.854,1.768,1.768,0,0,0,1.092.338,4.642,4.642,0,0,0,1.6-.273V5.495c0-.391-.061-.86-1.354-1.166a1.381,1.381,0,0,1-1-1.486V2.431h-1.3V1.345h1.3V.177h1.087V1.345h1.291V2.431h-1.291v.2c0,.635.4.725.471.744,1.234.381,1.875,1.045,1.875,2.086V8.711l-.22.07a8.282,8.282,0,0,1-2.472.5Zm12.022-.436a2.7,2.7,0,0,1-1.082-1.258l-.121-.266.939-.561.142.343a1.517,1.517,0,0,0,.651.73,2.077,2.077,0,0,0,1.043.262,1.649,1.649,0,0,0,1.166-.441,1.552,1.552,0,0,0,.45-1.245V2.288c0-.261-.055-1.152-.951-1.152s-.953.777-.953,1.141V4.4h-1.17V2.309c0-.4-.063-1.173-.957-1.173-.014,0-.025,0-.038,0v0h-.777V.049h.784v0l.028,0a2.13,2.13,0,0,1,1.542.8,2.133,2.133,0,0,1,1.544-.8c1.588,0,2.112,1.247,2.112,2.561v3.8a3.079,3.079,0,0,1-.418,1.569,2.664,2.664,0,0,1-1.041.976,3.018,3.018,0,0,1-1.337.3A2.967,2.967,0,0,1,138.445,8.846Zm-43.225,0a2.685,2.685,0,0,1-1.081-1.257l-.122-.266.939-.561L95.1,7.1a1.519,1.519,0,0,0,.651.73,2.078,2.078,0,0,0,1.043.262,1.655,1.655,0,0,0,1.166-.44A1.555,1.555,0,0,0,98.4,6.41l0-3.768a1.311,1.311,0,0,0-.463-1.059,1.668,1.668,0,0,0-1.087-.376,2.138,2.138,0,0,0-.959.217,1.443,1.443,0,0,0-.547.621l-.181.341-.858-.622.106-.232A2.24,2.24,0,0,1,95.364.416,3.3,3.3,0,0,1,96.879.049a2.816,2.816,0,0,1,1.857.665,2.58,2.58,0,0,1,.837,1.928V6.41a3.082,3.082,0,0,1-.419,1.568,2.66,2.66,0,0,1-1.041.976,3.019,3.019,0,0,1-1.336.3A2.964,2.964,0,0,1,95.22,8.845ZM7.9,8.845A2.679,2.679,0,0,1,6.822,7.588L6.7,7.322l.934-.561.15.343a1.442,1.442,0,0,0,.654.73A2.05,2.05,0,0,0,9.476,8.1a1.667,1.667,0,0,0,1.171-.44,1.572,1.572,0,0,0,.438-1.247l.005-3.768a1.323,1.323,0,0,0-.464-1.059,1.65,1.65,0,0,0-1.081-.376,2.128,2.128,0,0,0-.959.217,1.443,1.443,0,0,0-.547.621l-.176.341L7,1.762l.1-.232A2.233,2.233,0,0,1,8.047.416,3.338,3.338,0,0,1,9.565.049a2.782,2.782,0,0,1,1.852.665,2.538,2.538,0,0,1,.841,1.928V6.41a2.964,2.964,0,0,1-.419,1.568,2.675,2.675,0,0,1-1.038.976,3.065,3.065,0,0,1-1.336.3A2.981,2.981,0,0,1,7.9,8.845Zm64.5.4a8.638,8.638,0,0,1-2.589-.389l-.2-.058V4.266a5.445,5.445,0,0,1-.86.064,2.066,2.066,0,0,1-1.294-.456,1.486,1.486,0,0,1-.586-1.238V1.762A1.494,1.494,0,0,1,67.458.519,2.136,2.136,0,0,1,68.743.065a5.611,5.611,0,0,1,1.745.269L70.7.4v3.57a4.656,4.656,0,0,1,1.674-.33h.047a2.909,2.909,0,0,1,1.833.6A2.094,2.094,0,0,1,75.1,5.97v.858A2.142,2.142,0,0,1,74.266,8.6a3.132,3.132,0,0,1-1.861.654ZM70.7,5.119V8.01a6.642,6.642,0,0,0,1.7.2,1.861,1.861,0,0,0,1.164-.38,1.109,1.109,0,0,0,.441-.962V6a1.015,1.015,0,0,0-.431-.914,2.11,2.11,0,0,0-1.2-.368A4.4,4.4,0,0,0,70.7,5.119Zm-2.55-3.825a.423.423,0,0,0-.2.443v.918c0,.248.025.31.2.44s.267.139.605.139a4.8,4.8,0,0,0,.86-.079V1.231a5.011,5.011,0,0,0-.86-.075C68.415,1.155,68.314,1.166,68.147,1.294ZM101.135,7.6l-.12-.271.934-.566.149.353a1.8,1.8,0,0,0,1.713,1.02c.8,0,1.667-.382,1.667-1.272V6.244c0-.9-.865-1.293-1.639-1.293h-.659V3.871h.17c1.036,0,1.65-.273,1.65-1.318,0-1.268-.878-1.36-1.266-1.36a1.635,1.635,0,0,0-.841.22,1.374,1.374,0,0,0-.545.628l-.18.345-.864-.635.105-.241a2.231,2.231,0,0,1,.951-1.1A2.664,2.664,0,0,1,103.75.034,2.539,2.539,0,0,1,105.5.7a2.29,2.29,0,0,1,.624,1.865,2.175,2.175,0,0,1-.735,1.678,2.182,2.182,0,0,1,1.189,1.987V6.9h0a2.512,2.512,0,0,1-2.767,2.346A2.745,2.745,0,0,1,101.135,7.6Zm-14.006,0-.12-.271.934-.566.149.353A1.8,1.8,0,0,0,89.8,8.14c.8,0,1.667-.382,1.667-1.272V6.244c0-.9-.865-1.293-1.639-1.293h-.659V3.871h.171c1.036,0,1.649-.273,1.649-1.318,0-1.268-.878-1.36-1.266-1.36a1.635,1.635,0,0,0-.841.22,1.375,1.375,0,0,0-.545.628l-.18.345L87.3,1.751,87.4,1.51a2.231,2.231,0,0,1,.951-1.1A2.664,2.664,0,0,1,89.743.034,2.539,2.539,0,0,1,91.5.7a2.291,2.291,0,0,1,.624,1.865,2.175,2.175,0,0,1-.735,1.678,2.181,2.181,0,0,1,1.189,1.987V6.9h0A2.512,2.512,0,0,1,89.8,9.249,2.745,2.745,0,0,1,87.128,7.6ZM.12,7.6,0,7.332l.934-.566.149.353A1.8,1.8,0,0,0,2.8,8.14c.8,0,1.667-.382,1.667-1.272V6.244c0-.9-.865-1.293-1.639-1.293H2.165V3.871h.17c1.036,0,1.65-.273,1.65-1.318,0-1.268-.878-1.36-1.266-1.36a1.635,1.635,0,0,0-.841.22,1.376,1.376,0,0,0-.545.628l-.179.345L.29,1.751.4,1.51a2.23,2.23,0,0,1,.951-1.1A2.662,2.662,0,0,1,2.735.034,2.539,2.539,0,0,1,4.488.7a2.29,2.29,0,0,1,.624,1.865,2.175,2.175,0,0,1-.735,1.678A2.181,2.181,0,0,1,5.566,6.233V6.9h0A2.512,2.512,0,0,1,2.8,9.249,2.745,2.745,0,0,1,.12,7.6ZM148.805,9.249A2.742,2.742,0,0,1,146.126,7.6l-.118-.271.934-.566.151.354a1.786,1.786,0,0,0,1.711,1.02h.993c.8,0,1.674-.382,1.674-1.272V6.28c0-.9-.869-1.291-1.643-1.291h-.652V3.907h.162c1.037,0,1.648-.415,1.648-1.26,0-1.275-.876-1.459-1.262-1.459a1.622,1.622,0,0,0-.839.225,1.273,1.273,0,0,0-.477.514,2.081,2.081,0,0,1,.085.556c0,1.045-.267,2.7-2.38,2.7s-2.369-1.685-2.369-2.7A2.208,2.208,0,0,1,146.114.034a2.147,2.147,0,0,1,1.822.823,2.438,2.438,0,0,1,1.806-.823A2.532,2.532,0,0,1,151.494.7a2.508,2.508,0,0,1,.625,1.959,2.028,2.028,0,0,1-.739,1.621,2.18,2.18,0,0,1,1.2,1.984V6.9A2.528,2.528,0,0,1,149.8,9.249Zm-3.932-6.78V2.5c0,1.41.765,1.669,1.241,1.669s1.243-.178,1.243-1.669V2.469c0-1.373-.76-1.276-1.243-1.276h-.189C145.459,1.191,144.873,1.266,144.873,2.469Zm-14.314,4.4V6a2.348,2.348,0,0,1,2.5-2.295c.551,0,1.1-.369,1.1-1.294a1.261,1.261,0,0,0-1.2-1.221,1.6,1.6,0,0,0-.835.225,1.384,1.384,0,0,0-.549.628l-.176.344-.863-.635.1-.235a2.276,2.276,0,0,1,.957-1.1,2.741,2.741,0,0,1,1.393-.378A2.517,2.517,0,0,1,134.732.7a2.283,2.283,0,0,1,.628,1.706,1.714,1.714,0,0,1-.856,1.578A2.084,2.084,0,0,1,136.07,6v.87a2.785,2.785,0,0,1-5.512,0Zm1.1-.87v.87c0,.886.86,1.272,1.658,1.272s1.653-.385,1.653-1.272V6c0-.9-.86-1.282-1.653-1.286S131.656,5.1,131.656,6ZM116.221,9.1V2.5a1.142,1.142,0,0,0-.724-1.217,1.958,1.958,0,0,0-1.486-.093,1.06,1.06,0,0,0-.821.837.518.518,0,0,0-.011.139v2.01h-1.022l-.009-2.01A1.547,1.547,0,0,0,112.143,2a1.063,1.063,0,0,0-.816-.817,1.962,1.962,0,0,0-1.489.093,1.144,1.144,0,0,0-.732,1.2V9.1h-1.087V2.478a2.23,2.23,0,0,1,.8-1.821,2.794,2.794,0,0,1,1.915-.592A3.849,3.849,0,0,1,111.9.283a2.316,2.316,0,0,1,.767.522,2.318,2.318,0,0,1,.765-.522A3.847,3.847,0,0,1,114.6.066a2.748,2.748,0,0,1,1.9.592,2.21,2.21,0,0,1,.8,1.821V9.1Zm42.2,0V2.47c0-.892-.862-1.284-1.639-1.284-.795,0-1.657.392-1.657,1.284V9.1h-1.11V2.47a2.784,2.784,0,0,1,5.51,0V9.1ZM25.337,9.1V2.47c0-.892-.863-1.284-1.637-1.284-.8,0-1.669.392-1.669,1.284V9.1h-1.1V2.47A2.512,2.512,0,0,1,23.7.087,2.492,2.492,0,0,1,26.44,2.47V9.1Z" transform="translate(0 61.19)" fill="#292562" stroke="rgba(0,0,0,0)" stroke-miterlimit="10" stroke-width="1"/>
  </g>
</svg>
